<svg xmlns="http://www.w3.org/2000/svg" width="1600" height="1040" viewBox="0 0 1600 1040" role="img" aria-labelledby="title desc"><title id="title">Culture &amp; Taste Daily — a digital culture magazine</title><desc id="desc">Three original issue covers: The Body Enters the Exhibition, Newness Becomes Usable, and The Workbench Is Part of the Work.</desc><rect width="1600" height="1040" fill="#f4f1e8"/><g fill="#171917"><text x="80" y="76" font-family="Arial,sans-serif" font-size="21" letter-spacing="4">FASHION / MUSIC / OBJECTS / CITY</text><text x="80" y="191" font-family="Georgia,serif" font-size="108" letter-spacing="-5">Culture &amp; Taste</text><text x="1365" y="188" font-family="Georgia,serif" font-style="italic" font-size="54">Daily</text><path d="M80 231H1520" stroke="#171917"/><text x="80" y="285" font-family="Arial,sans-serif" font-size="28">A point of view. A different world with every issue.</text></g><svg x="80" y="335" width="440" height="550" viewBox="0 0 1200 1500"><rect width="1200" height="1500" fill="#102a2a"/><path d="M70 320C310 40 360 1460 590 1180S820 40 1120 320M80 1160C300 1420 420 40 680 330S900 1360 1130 1080" fill="none" stroke="#ffcf4a" stroke-width="30"/><path d="M60 280h1080M60 750h1080M60 1190h1080" stroke="#e9f0e7" stroke-width="5" stroke-dasharray="26 16"/><circle cx="250" cy="330" r="34" fill="#90f0d0"/><circle cx="610" cy="1180" r="34" fill="#90f0d0"/><circle cx="930" cy="320" r="34" fill="#90f0d0"/><rect x="740" y="120" width="360" height="155" fill="#f27a63"/><text x="800" y="220" fill="#102a2a" font-family="monospace" font-size="62" font-weight="700">09.02</text><text x="60" y="1280" fill="#e9f0e7" font-family="Arial,sans-serif" font-size="78" font-weight="900">THE BODY</text><text x="60" y="1390" fill="#e9f0e7" font-family="Arial,sans-serif" font-size="78" font-weight="900">ENTERS THE EXHIBITION</text></svg>
<text x="80" y="931" fill="#171917" font-family="Arial,sans-serif" font-size="20" letter-spacing="2">01 / PARTICIPATION</text><svg x="580" y="335" width="440" height="550" viewBox="0 0 1200 1500"><rect width="1200" height="1500" fill="#f2ebdd"/><path d="M170 -80L820 1580" stroke="#e84a37" stroke-width="38"/><path d="M88 240H1110M88 730H1110M88 1180H1110" stroke="#171717" stroke-width="7" stroke-dasharray="24 18"/><rect x="220" y="270" width="420" height="180" fill="#171717"/><rect x="610" y="800" width="430" height="210" fill="#171717"/><rect x="90" y="1050" width="390" height="170" fill="#171717"/><path d="M850 140l170 95-105 150" fill="none" stroke="#d5f23b" stroke-width="30"/><circle cx="220" cy="240" r="28" fill="#2457c5"/><circle cx="640" cy="790" r="28" fill="#2457c5"/><rect x="720" y="80" width="310" height="132" fill="#d5f23b"/><text x="770" y="165" fill="#171717" font-family="monospace" font-size="56" font-weight="700">09.03</text><text x="90" y="1330" fill="#171717" font-family="Arial,sans-serif" font-size="78" font-weight="900">NEWNESS</text><text x="90" y="1430" fill="#171717" font-family="Arial,sans-serif" font-size="78" font-weight="900">BECOMES USABLE</text></svg>
<text x="580" y="931" fill="#171917" font-family="Arial,sans-serif" font-size="20" letter-spacing="2">02 / USE</text><svg x="1080" y="335" width="440" height="550" viewBox="0 0 1200 1500"><rect width="1200" height="1500" fill="#f7f5ef"/><path d="M96 252H1100" stroke="#2757d6" stroke-width="44"/><path d="M96 1020H1100" stroke="#2757d6" stroke-width="18" opacity=".3"/><path d="M310 160v930M780 160v930" stroke="#c9ced6" stroke-width="120" opacity=".7"/><rect x="110" y="350" width="480" height="210" fill="#111827" transform="rotate(-5 110 350)"/><rect x="650" y="800" width="400" height="170" fill="#111827" transform="rotate(4 650 800)"/><circle cx="96" cy="252" r="34" fill="#f05a3c"/><circle cx="1100" cy="252" r="34" fill="#f05a3c"/><path d="M860 180h210v150H860z" fill="#b9f4d1"/><path d="M935 220l70 38-70 38" fill="none" stroke="#111827" stroke-width="16"/><text x="96" y="1240" fill="#111827" font-family="Arial,sans-serif" font-size="74" font-weight="900">THE WORKBENCH</text><text x="96" y="1345" fill="#111827" font-family="Arial,sans-serif" font-size="74" font-weight="900">IS PART OF THE WORK</text><text x="96" y="1435" fill="#f05a3c" font-family="monospace" font-size="52" font-weight="700">09.04 / PREVIEW</text></svg>
<text x="1080" y="931" fill="#171917" font-family="Arial,sans-serif" font-size="20" letter-spacing="2">03 / MAKING</text><path d="M80 971H1520" stroke="#171917"/><text x="80" y="1011" fill="#53564e" font-family="Arial,sans-serif" font-size="18" letter-spacing="2">INDEPENDENT EDITORIAL / CHINESE + ENGLISH / DIGITAL EDITION</text></svg>