<svg xmlns="http://www.w3.org/2000/svg" viewBox="0 0 1600 1000" role="img" aria-labelledby="title desc">
  <title id="title">把文化写进日程</title>
  <desc id="desc">Abstract original cover with four offset translucent schedule sheets, route lines and orange entry points.</desc>
  <rect width="1600" height="1000" fill="#eaf0f2"/>
  <path d="M0 190H1600M0 500H1600M0 810H1600" stroke="#162322" stroke-width="3" opacity=".14"/>
  <path d="M230 180L1290 820" stroke="#6aa7a1" stroke-width="46" opacity=".75"/>
  <path d="M470 105L1370 575" stroke="#162322" stroke-width="16" opacity=".75"/>
  <path d="M180 735L1150 180" stroke="#f26a3d" stroke-width="13" opacity=".88"/>
  <rect x="180" y="195" width="450" height="245" fill="#ffffff" fill-opacity=".65" stroke="#162322" stroke-width="6" transform="rotate(-8 180 195)"/>
  <rect x="720" y="200" width="505" height="260" fill="#ffffff" fill-opacity=".54" stroke="#162322" stroke-width="6" transform="rotate(8 720 200)"/>
  <rect x="425" y="560" width="550" height="245" fill="#ffffff" fill-opacity=".48" stroke="#162322" stroke-width="6" transform="rotate(-3 425 560)"/>
  <circle cx="230" cy="180" r="33" fill="#f26a3d"/><circle cx="1290" cy="820" r="33" fill="#f26a3d"/><circle cx="470" cy="105" r="22" fill="#162322"/>
  <path d="M1160 95h270v145h-270z" fill="#162322"/><path d="M1250 130l75 37-75 39" fill="none" stroke="#eaf0f2" stroke-width="19"/>
  <g fill="#162322" font-family="monospace" font-weight="700"><text x="110" y="78" font-size="28">CULTURE / PUBLIC ROUTE</text><text x="110" y="930" font-size="28">OPEN → CHOOSE → ENTER</text><text x="1230" y="288" font-size="24">09.06</text></g>
</svg>
